<svg width="550" height="550" viewBox="0 0 550 550" fill="none" xmlns="http://www.w3.org/2000/svg">
<path d="M69.64 502C64.52 502 60.712 500.656 58.216 497.968C55.72 495.28 54.472 491.856 54.472 487.696V463.504H41.032V452.464H49.768C51.88 452.464 53.384 452.048 54.28 451.216C55.176 450.384 55.624 448.848 55.624 446.608V434.992H68.68V452.464H87.976V463.504H68.68V490.96H87.976V502H69.64ZM96.3865 490.96H107.811V463.504H96.3865V452.464H122.019V466.48H122.691C123.139 464.688 123.747 462.96 124.515 461.296C125.347 459.568 126.371 458.064 127.587 456.784C128.867 455.44 130.403 454.384 132.195 453.616C133.987 452.848 136.099 452.464 138.531 452.464H143.235V465.52H132.675C129.155 465.52 126.499 466.576 124.707 468.688C122.915 470.736 122.019 473.264 122.019 476.272V490.96H138.339V502H96.3865V490.96ZM188.317 502C185.373 502 183.005 501.264 181.213 499.792C179.421 498.256 178.365 496.08 178.045 493.264H177.565C176.669 496.528 174.877 498.992 172.189 500.656C169.565 502.32 166.333 503.152 162.493 503.152C157.693 503.152 153.821 501.872 150.877 499.312C147.997 496.688 146.557 493.04 146.557 488.368C146.557 483.184 148.445 479.344 152.221 476.848C155.997 474.352 161.533 473.104 168.829 473.104H176.797V470.608C176.797 467.664 176.093 465.456 174.685 463.984C173.341 462.448 171.037 461.68 167.773 461.68C164.765 461.68 162.333 462.256 160.477 463.408C158.621 464.56 157.021 466.064 155.677 467.92L147.901 461.008C149.565 458.192 152.157 455.888 155.677 454.096C159.261 452.24 163.837 451.312 169.405 451.312C176.189 451.312 181.469 452.88 185.245 456.016C189.085 459.088 191.005 463.76 191.005 470.032V491.728H196.477V502H188.317ZM167.869 493.84C170.365 493.84 172.477 493.232 174.205 492.016C175.933 490.8 176.797 489.04 176.797 486.736V480.784H169.213C163.389 480.784 160.477 482.736 160.477 486.64V488.56C160.477 490.288 161.149 491.6 162.493 492.496C163.837 493.392 165.629 493.84 167.869 493.84ZM200.088 502V452.464H214.296V461.488H214.872C215.448 460.08 216.152 458.768 216.984 457.552C217.816 456.336 218.808 455.28 219.96 454.384C221.176 453.424 222.552 452.688 224.088 452.176C225.688 451.6 227.48 451.312 229.464 451.312C231.832 451.312 234.008 451.728 235.992 452.56C237.976 453.328 239.672 454.512 241.08 456.112C242.488 457.712 243.576 459.664 244.344 461.968C245.176 464.272 245.592 466.928 245.592 469.936V502H231.384V471.856C231.384 465.456 228.6 462.256 223.032 462.256C221.944 462.256 220.856 462.416 219.768 462.736C218.744 462.992 217.816 463.44 216.984 464.08C216.152 464.656 215.48 465.392 214.968 466.288C214.52 467.184 214.296 468.24 214.296 469.456V502H200.088ZM274.354 503.152C268.85 503.152 264.05 502.32 259.954 500.656C255.922 498.992 252.882 496.72 250.834 493.84L258.802 486.448C260.722 488.56 262.962 490.224 265.522 491.44C268.146 492.592 271.122 493.168 274.45 493.168C277.266 493.168 279.474 492.752 281.074 491.92C282.674 491.024 283.474 489.68 283.474 487.888C283.474 486.48 282.93 485.52 281.842 485.008C280.754 484.432 279.25 483.984 277.33 483.664L269.362 482.416C267.122 482.096 265.042 481.616 263.122 480.976C261.202 480.272 259.538 479.344 258.13 478.192C256.722 477.04 255.602 475.632 254.77 473.968C253.938 472.304 253.522 470.288 253.522 467.92C253.522 462.736 255.506 458.672 259.474 455.728C263.442 452.784 269.01 451.312 276.178 451.312C281.042 451.312 285.17 451.984 288.562 453.328C292.018 454.608 294.77 456.464 296.818 458.896L289.714 466.96C288.242 465.36 286.354 464.016 284.05 462.928C281.746 461.84 278.962 461.296 275.698 461.296C270.194 461.296 267.442 462.96 267.442 466.288C267.442 467.76 267.986 468.784 269.074 469.36C270.162 469.872 271.666 470.288 273.586 470.608L281.458 471.856C283.698 472.176 285.778 472.688 287.698 473.392C289.618 474.032 291.282 474.928 292.69 476.08C294.162 477.232 295.314 478.64 296.146 480.304C296.978 481.968 297.394 483.984 297.394 486.352C297.394 491.536 295.378 495.632 291.346 498.64C287.378 501.648 281.714 503.152 274.354 503.152ZM304.941 490.96H320.109V442H304.941V430.96H334.317V490.96H349.485V502H304.941V490.96ZM397.447 502C394.503 502 392.135 501.264 390.343 499.792C388.551 498.256 387.495 496.08 387.175 493.264H386.695C385.799 496.528 384.007 498.992 381.319 500.656C378.695 502.32 375.463 503.152 371.623 503.152C366.823 503.152 362.951 501.872 360.007 499.312C357.127 496.688 355.687 493.04 355.687 488.368C355.687 483.184 357.575 479.344 361.351 476.848C365.127 474.352 370.663 473.104 377.959 473.104H385.927V470.608C385.927 467.664 385.223 465.456 383.815 463.984C382.471 462.448 380.167 461.68 376.903 461.68C373.895 461.68 371.463 462.256 369.607 463.408C367.751 464.56 366.151 466.064 364.807 467.92L357.031 461.008C358.695 458.192 361.287 455.888 364.807 454.096C368.391 452.24 372.967 451.312 378.535 451.312C385.319 451.312 390.599 452.88 394.375 456.016C398.215 459.088 400.135 463.76 400.135 470.032V491.728H405.607V502H397.447ZM376.999 493.84C379.495 493.84 381.607 493.232 383.335 492.016C385.063 490.8 385.927 489.04 385.927 486.736V480.784H378.343C372.519 480.784 369.607 482.736 369.607 486.64V488.56C369.607 490.288 370.279 491.6 371.623 492.496C372.967 493.392 374.759 493.84 376.999 493.84ZM435.618 502C430.498 502 426.69 500.656 424.194 497.968C421.698 495.28 420.45 491.856 420.45 487.696V463.504H407.01V452.464H415.746C417.858 452.464 419.362 452.048 420.258 451.216C421.154 450.384 421.602 448.848 421.602 446.608V434.992H434.658V452.464H453.954V463.504H434.658V490.96H453.954V502H435.618ZM485.404 503.152C477.084 503.152 470.78 500.848 466.492 496.24C462.204 491.632 460.06 485.36 460.06 477.424C460.06 473.392 460.604 469.776 461.692 466.576C462.844 463.312 464.444 460.56 466.492 458.32C468.604 456.016 471.132 454.288 474.076 453.136C477.084 451.92 480.444 451.312 484.156 451.312C487.868 451.312 491.196 451.92 494.14 453.136C497.084 454.288 499.58 455.952 501.628 458.128C503.676 460.304 505.244 462.96 506.332 466.096C507.484 469.168 508.06 472.624 508.06 476.464V480.688H474.172V481.552C474.172 484.752 475.164 487.344 477.148 489.328C479.132 491.248 482.044 492.208 485.884 492.208C488.828 492.208 491.356 491.664 493.468 490.576C495.58 489.424 497.404 487.92 498.94 486.064L506.62 494.416C504.7 496.784 502.012 498.832 498.556 500.56C495.1 502.288 490.716 503.152 485.404 503.152ZM484.252 461.488C481.18 461.488 478.716 462.448 476.86 464.368C475.068 466.224 474.172 468.752 474.172 471.952V472.72H494.14V471.952C494.14 468.688 493.244 466.128 491.452 464.272C489.724 462.416 487.324 461.488 484.252 461.488Z" fill="black"/>
<path d="M248.88 403V353.464H260.304V360.76H260.976C261.744 358.456 262.832 356.472 264.24 354.808C265.712 353.144 267.76 352.312 270.384 352.312C275.184 352.312 278.128 355.128 279.216 360.76H279.792C280.176 359.608 280.656 358.52 281.232 357.496C281.808 356.472 282.512 355.576 283.344 354.808C284.176 354.04 285.168 353.432 286.32 352.984C287.472 352.536 288.816 352.312 290.352 352.312C297.264 352.312 300.72 357.4 300.72 367.576V403H289.296V369.016C289.296 366.712 288.88 365.112 288.048 364.216C287.28 363.256 286.256 362.776 284.976 362.776C283.76 362.776 282.704 363.192 281.808 364.024C280.976 364.792 280.56 366.008 280.56 367.672V403H269.04V369.016C269.04 366.712 268.656 365.112 267.888 364.216C267.184 363.256 266.192 362.776 264.912 362.776C263.632 362.776 262.544 363.192 261.648 364.024C260.752 364.792 260.304 366.008 260.304 367.672V403H248.88ZM345.035 403C342.091 403 339.723 402.264 337.931 400.792C336.139 399.256 335.083 397.08 334.763 394.264H334.283C333.387 397.528 331.595 399.992 328.907 401.656C326.283 403.32 323.051 404.152 319.211 404.152C314.411 404.152 310.539 402.872 307.595 400.312C304.715 397.688 303.275 394.04 303.275 389.368C303.275 384.184 305.163 380.344 308.939 377.848C312.715 375.352 318.251 374.104 325.547 374.104H333.515V371.608C333.515 368.664 332.811 366.456 331.403 364.984C330.059 363.448 327.755 362.68 324.491 362.68C321.483 362.68 319.051 363.256 317.195 364.408C315.339 365.56 313.739 367.064 312.395 368.92L304.619 362.008C306.283 359.192 308.875 356.888 312.395 355.096C315.979 353.24 320.555 352.312 326.123 352.312C332.907 352.312 338.187 353.88 341.963 357.016C345.803 360.088 347.723 364.76 347.723 371.032V392.728H353.195V403H345.035ZM324.587 394.84C327.083 394.84 329.195 394.232 330.923 393.016C332.651 391.8 333.515 390.04 333.515 387.736V381.784H325.931C320.107 381.784 317.195 383.736 317.195 387.64V389.56C317.195 391.288 317.867 392.6 319.211 393.496C320.555 394.392 322.347 394.84 324.587 394.84ZM406.533 407.992C406.533 413.24 404.325 417.112 399.909 419.608C395.493 422.104 388.549 423.352 379.077 423.352C374.341 423.352 370.437 423.064 367.365 422.488C364.293 421.976 361.829 421.208 359.973 420.184C358.181 419.16 356.901 417.944 356.133 416.536C355.429 415.128 355.077 413.592 355.077 411.928C355.077 409.112 355.909 406.968 357.573 405.496C359.237 404.088 361.573 403 364.581 402.232V401.656C362.469 401.016 360.773 400.12 359.493 398.968C358.277 397.752 357.669 396.056 357.669 393.88C357.669 391.448 358.469 389.656 360.069 388.504C361.733 387.352 363.909 386.456 366.597 385.816V385.24C363.653 383.832 361.349 381.848 359.685 379.288C358.085 376.728 357.285 373.624 357.285 369.976C357.285 367.096 357.797 364.568 358.821 362.392C359.845 360.152 361.285 358.296 363.141 356.824C365.061 355.352 367.333 354.232 369.957 353.464C372.581 352.696 375.525 352.312 378.789 352.312C381.925 352.312 384.837 352.664 387.525 353.368V350.68C387.525 348.76 388.197 347.16 389.541 345.88C390.885 344.6 392.741 343.96 395.109 343.96H403.845V354.328H391.941V355.192C394.629 356.6 396.709 358.552 398.181 361.048C399.717 363.48 400.485 366.456 400.485 369.976C400.485 372.856 399.973 375.384 398.949 377.56C397.925 379.736 396.453 381.592 394.533 383.128C392.613 384.6 390.309 385.72 387.621 386.488C384.997 387.256 382.053 387.64 378.789 387.64C377.317 387.64 375.909 387.576 374.565 387.448C373.221 387.256 371.941 387 370.725 386.68C370.021 387.064 369.413 387.544 368.901 388.12C368.453 388.696 368.229 389.432 368.229 390.328C368.229 391.096 368.421 391.704 368.805 392.152C369.189 392.6 369.701 392.952 370.341 393.208C371.045 393.4 371.845 393.528 372.741 393.592C373.637 393.656 374.565 393.688 375.525 393.688H386.853C390.373 393.688 393.381 394.04 395.877 394.744C398.373 395.448 400.421 396.44 402.021 397.72C403.621 399 404.773 400.504 405.477 402.232C406.181 403.96 406.533 405.88 406.533 407.992ZM393.093 409.048C393.093 407.768 392.581 406.744 391.557 405.976C390.533 405.272 388.581 404.92 385.701 404.92H368.709C367.429 406.008 366.789 407.352 366.789 408.952C366.789 410.488 367.429 411.736 368.709 412.696C370.053 413.72 372.293 414.232 375.429 414.232H383.781C387.045 414.232 389.413 413.784 390.885 412.888C392.357 411.992 393.093 410.712 393.093 409.048ZM378.789 378.616C381.669 378.616 383.749 377.912 385.029 376.504C386.373 375.096 387.045 373.304 387.045 371.128V368.824C387.045 366.648 386.373 364.856 385.029 363.448C383.749 362.04 381.669 361.336 378.789 361.336C375.973 361.336 373.925 362.04 372.645 363.448C371.365 364.856 370.725 366.648 370.725 368.824V371.128C370.725 373.304 371.365 375.096 372.645 376.504C373.925 377.912 375.973 378.616 378.789 378.616ZM434.72 347.128C431.52 347.128 429.28 346.488 428 345.208C426.784 343.864 426.176 342.264 426.176 340.408V337.624C426.176 335.704 426.784 334.104 428 332.824C429.28 331.544 431.52 330.904 434.72 330.904C437.92 330.904 440.128 331.544 441.344 332.824C442.624 334.104 443.264 335.704 443.264 337.624V340.408C443.264 342.264 442.624 343.864 441.344 345.208C440.128 346.488 437.92 347.128 434.72 347.128ZM411.872 391.96H427.616V364.504H411.872V353.464H441.824V391.96H456.416V403H411.872V391.96ZM485.946 404.152C482.042 404.152 478.522 403.576 475.386 402.424C472.314 401.208 469.69 399.48 467.514 397.24C465.402 395 463.77 392.28 462.618 389.08C461.466 385.88 460.89 382.264 460.89 378.232C460.89 374.2 461.466 370.584 462.618 367.384C463.77 364.184 465.402 361.464 467.514 359.224C469.69 356.984 472.314 355.288 475.386 354.136C478.522 352.92 482.01 352.312 485.85 352.312C491.29 352.312 495.642 353.432 498.906 355.672C502.234 357.848 504.762 360.76 506.49 364.408L495.546 370.36C494.65 368.44 493.466 366.84 491.994 365.56C490.586 364.28 488.538 363.64 485.85 363.64C482.586 363.64 480.058 364.6 478.266 366.52C476.538 368.376 475.674 370.936 475.674 374.2V382.264C475.674 385.528 476.538 388.12 478.266 390.04C480.058 391.896 482.65 392.824 486.042 392.824C488.794 392.824 490.938 392.184 492.474 390.904C494.074 389.624 495.418 387.96 496.506 385.912L507.258 392.056C505.466 395.704 502.842 398.648 499.386 400.888C495.994 403.064 491.514 404.152 485.946 404.152Z" fill="black"/>
<rect x="10" y="10" width="530" height="530" stroke="black" stroke-width="20"/>
</svg>
